<?xml version="1.0" encoding="UTF-8"?>
<svg id="Capa_1" data-name="Capa 1" xmlns="http://www.w3.org/2000/svg" viewBox="0 0 500 500">
  <defs>
    <style>
      .cls-1 {
        fill: none;
        stroke: #fff;
        stroke-miterlimit: 10;
        stroke-width: 5.46px;
      }

      .cls-2 {
        fill: #fff;
      }
    </style>
  </defs>
  <rect class="cls-1" x="68.11" y="22.18" width="364.17" height="364.17" rx="17.55" ry="17.55"/>
  <g>
    <path class="cls-2" d="M205.87,314.96c-9.39,0-18.11-1.54-26.16-4.61-8.06-3.07-15.04-7.44-20.95-13.12-5.91-5.68-10.52-12.34-13.82-19.99-3.3-7.65-4.95-16.05-4.95-25.21s1.65-17.56,4.95-25.21c3.3-7.65,7.94-14.31,13.91-19.99,5.97-5.68,12.95-10.05,20.95-13.12,8-3.07,16.74-4.61,26.25-4.61,10.54,0,20.08,1.83,28.6,5.48,8.52,3.65,15.67,9.01,21.47,16.08l-18.08,16.69c-4.17-4.75-8.81-8.31-13.91-10.69-5.1-2.37-10.66-3.56-16.69-3.56-5.68,0-10.89.93-15.65,2.78-4.75,1.85-8.87,4.52-12.34,8s-6.17,7.59-8.08,12.34c-1.91,4.75-2.87,10.03-2.87,15.82s.96,11.07,2.87,15.82c1.91,4.75,4.61,8.87,8.08,12.34s7.59,6.14,12.34,8c4.75,1.85,9.97,2.78,15.65,2.78,6.02,0,11.59-1.19,16.69-3.56,5.1-2.37,9.73-6,13.91-10.86l18.08,16.69c-5.8,7.07-12.95,12.46-21.47,16.17-8.52,3.71-18.11,5.56-28.77,5.56Z"/>
    <path class="cls-2" d="M301.3,314.27c-7.3,0-13.56-1.25-18.77-3.74s-9.21-5.88-11.99-10.17c-2.78-4.29-4.17-9.1-4.17-14.43s1.36-10.43,4.08-14.6c2.72-4.17,7.04-7.45,12.95-9.82,5.91-2.37,13.62-3.56,23.12-3.56h24.86v15.82h-21.9c-6.38,0-10.75,1.04-13.12,3.13-2.38,2.09-3.56,4.69-3.56,7.82,0,3.48,1.36,6.23,4.08,8.26,2.72,2.03,6.46,3.04,11.21,3.04s8.57-1.07,12.17-3.22c3.59-2.14,6.2-5.3,7.82-9.47l4.17,12.52c-1.97,6.03-5.56,10.6-10.78,13.73s-11.94,4.69-20.16,4.69ZM329.81,312.88v-18.25l-1.74-4v-32.68c0-5.79-1.77-10.31-5.3-13.56-3.54-3.24-8.95-4.87-16.25-4.87-4.98,0-9.88.78-14.69,2.35-4.81,1.56-8.9,3.68-12.25,6.35l-9.73-18.95c5.1-3.59,11.24-6.37,18.43-8.34,7.18-1.97,14.48-2.96,21.9-2.96,14.25,0,25.32,3.36,33.2,10.08,7.88,6.72,11.82,17.21,11.82,31.46v53.37h-25.38Z"/>
  </g>
  <g>
    <path class="cls-2" d="M179.89,153.81v-10.32l32.99-31.33c2.77-2.61,4.82-4.9,6.17-6.88,1.34-1.98,2.23-3.82,2.67-5.52.43-1.7.65-3.3.65-4.81,0-3.8-1.31-6.74-3.92-8.84-2.61-2.09-6.45-3.14-11.51-3.14-4.03,0-7.69.71-10.98,2.14-3.28,1.42-6.11,3.6-8.48,6.53l-10.8-8.31c3.24-4.35,7.61-7.73,13.11-10.15,5.5-2.41,11.65-3.62,18.45-3.62,6.01,0,11.25.97,15.72,2.91,4.47,1.94,7.91,4.69,10.32,8.25,2.41,3.56,3.62,7.79,3.62,12.7,0,2.69-.36,5.36-1.07,8.01-.71,2.65-2.06,5.44-4.03,8.37-1.98,2.93-4.87,6.21-8.66,9.85l-28.36,26.94-3.2-5.81h48.53v13.05h-61.23Z"/>
    <path class="cls-2" d="M284.67,155c-6.57,0-12.48-1.66-17.74-4.98-5.26-3.32-9.39-8.17-12.4-14.54-3.01-6.37-4.51-14.1-4.51-23.2s1.5-16.83,4.51-23.2c3.01-6.37,7.14-11.21,12.4-14.54,5.26-3.32,11.17-4.98,17.74-4.98s12.58,1.66,17.8,4.98c5.22,3.32,9.35,8.17,12.4,14.54,3.04,6.37,4.57,14.1,4.57,23.2s-1.52,16.83-4.57,23.2c-3.05,6.37-7.18,11.21-12.4,14.54-5.22,3.32-11.15,4.98-17.8,4.98ZM284.67,141.59c3.88,0,7.24-1.05,10.09-3.14,2.85-2.1,5.08-5.32,6.7-9.67,1.62-4.35,2.43-9.85,2.43-16.49s-.81-12.24-2.43-16.55c-1.62-4.31-3.86-7.51-6.7-9.61-2.85-2.09-6.21-3.14-10.09-3.14s-7.02,1.05-9.91,3.14c-2.89,2.1-5.14,5.3-6.76,9.61-1.62,4.31-2.43,9.83-2.43,16.55s.81,12.14,2.43,16.49c1.62,4.35,3.88,7.58,6.76,9.67,2.89,2.1,6.19,3.14,9.91,3.14Z"/>
  </g>
  <g>
    <path class="cls-2" d="M173.11,481.02c-3.76,0-7.23-.62-10.41-1.87-3.18-1.25-5.93-3.01-8.26-5.29-2.33-2.28-4.15-4.95-5.47-8.01-1.32-3.06-1.98-6.42-1.98-10.09s.66-7.03,1.98-10.09c1.32-3.06,3.15-5.73,5.5-8.01,2.35-2.28,5.12-4.04,8.29-5.29,3.17-1.25,6.64-1.87,10.41-1.87s7.33.65,10.55,1.94c3.22,1.29,5.96,3.21,8.22,5.75l-4.59,4.44c-1.88-1.98-4-3.44-6.35-4.41-2.35-.96-4.87-1.45-7.55-1.45s-5.35.47-7.73,1.41c-2.38.94-4.43,2.26-6.17,3.95-1.74,1.69-3.09,3.7-4.06,6.03-.96,2.33-1.45,4.86-1.45,7.58s.48,5.26,1.45,7.58c.96,2.33,2.32,4.34,4.06,6.03,1.74,1.69,3.8,3.01,6.17,3.95,2.37.94,4.95,1.41,7.73,1.41s5.2-.48,7.55-1.45c2.35-.96,4.47-2.46,6.35-4.48l4.59,4.44c-2.26,2.54-5,4.47-8.22,5.79-3.22,1.32-6.76,1.98-10.62,1.98Z"/>
    <path class="cls-2" d="M210.79,480.88c-2.78,0-5.21-.47-7.3-1.41-2.09-.94-3.7-2.25-4.83-3.92-1.13-1.67-1.69-3.56-1.69-5.68s.48-3.86,1.45-5.5c.96-1.65,2.54-2.96,4.73-3.95,2.19-.99,5.14-1.48,8.85-1.48h11.85v4.87h-11.57c-3.39,0-5.67.56-6.84,1.69-1.18,1.13-1.76,2.49-1.76,4.09,0,1.83.73,3.31,2.19,4.41,1.46,1.11,3.48,1.66,6.07,1.66s4.76-.56,6.67-1.69c1.91-1.13,3.28-2.77,4.13-4.94l1.34,4.66c-.89,2.21-2.47,3.96-4.73,5.26-2.26,1.29-5.1,1.94-8.54,1.94ZM223.07,480.45v-7.9l-.35-1.48v-13.48c0-2.87-.84-5.09-2.5-6.67-1.67-1.58-4.17-2.36-7.51-2.36-2.21,0-4.37.36-6.49,1.09-2.12.73-3.9,1.71-5.36,2.93l-2.82-5.08c1.93-1.55,4.24-2.74,6.95-3.56,2.7-.82,5.54-1.23,8.5-1.23,5.13,0,9.08,1.25,11.85,3.74,2.77,2.49,4.16,6.3,4.16,11.43v22.58h-6.42Z"/>
    <path class="cls-2" d="M241.34,480.45v-52.35h6.77v52.35h-6.77Z"/>
    <path class="cls-2" d="M276.62,480.88c-3.81,0-7.21-.82-10.2-2.47-2.99-1.65-5.33-3.9-7.02-6.77-1.69-2.87-2.54-6.16-2.54-9.88s.85-7.01,2.54-9.88c1.69-2.87,4.03-5.12,7.02-6.74,2.99-1.62,6.39-2.43,10.2-2.43,3.39,0,6.41.67,9.07,2.01,2.66,1.34,4.72,3.33,6.17,5.96l-5.15,3.32c-1.22-1.83-2.72-3.19-4.48-4.06-1.76-.87-3.66-1.31-5.68-1.31-2.45,0-4.63.54-6.56,1.62-1.93,1.08-3.46,2.6-4.59,4.55-1.13,1.95-1.69,4.27-1.69,6.95s.56,5.01,1.69,6.98,2.66,3.5,4.59,4.59c1.93,1.08,4.12,1.62,6.56,1.62,2.02,0,3.92-.43,5.68-1.31,1.76-.87,3.26-2.22,4.48-4.06l5.15,3.25c-1.46,2.59-3.52,4.58-6.17,5.96-2.66,1.39-5.68,2.08-9.07,2.08Z"/>
    <path class="cls-2" d="M302.79,435.86c-1.32,0-2.41-.42-3.28-1.27-.87-.85-1.31-1.88-1.31-3.1s.43-2.33,1.31-3.18c.87-.85,1.96-1.27,3.28-1.27s2.41.41,3.28,1.23c.87.82,1.31,1.85,1.31,3.07s-.42,2.34-1.27,3.21c-.85.87-1.95,1.31-3.32,1.31ZM299.41,480.45v-37.39h6.77v37.39h-6.77Z"/>
    <path class="cls-2" d="M334.4,480.88c-3.76,0-7.1-.82-10.02-2.47-2.92-1.65-5.22-3.92-6.91-6.81-1.69-2.89-2.54-6.17-2.54-9.84s.85-7.01,2.54-9.88c1.69-2.87,4-5.12,6.91-6.74,2.92-1.62,6.25-2.43,10.02-2.43s7.04.81,9.98,2.43c2.94,1.62,5.24,3.86,6.91,6.7,1.67,2.85,2.5,6.15,2.5,9.91s-.84,7.01-2.5,9.88c-1.67,2.87-3.98,5.13-6.91,6.77-2.94,1.65-6.27,2.47-9.98,2.47ZM334.4,474.95c2.4,0,4.55-.54,6.46-1.62,1.9-1.08,3.4-2.62,4.48-4.62,1.08-2,1.62-4.31,1.62-6.95s-.54-5-1.62-6.95c-1.08-1.95-2.58-3.47-4.48-4.55-1.91-1.08-4.06-1.62-6.46-1.62s-4.54.54-6.42,1.62c-1.88,1.08-3.39,2.6-4.52,4.55-1.13,1.95-1.69,4.27-1.69,6.95s.56,4.95,1.69,6.95c1.13,2,2.63,3.54,4.52,4.62,1.88,1.08,4.02,1.62,6.42,1.62Z"/>
  </g>
</svg>